<?xml version="1.0" encoding="UTF-8"?>
<svg xmlns="http://www.w3.org/2000/svg" viewBox="-1050 -1050 14100 12350" role="img" aria-labelledby="sheet-title sheet-desc" data-sheet="e-01-switch-control" data-revision="1" data-geometry-sha256="e771793e5bdef4cc5554cc6f0a9114ea78ebac713bf145b6bd7b72a00994828e">
  <title id="sheet-title">朝光三居装修方案 · E-01 开关控制图</title>
  <desc id="sheet-desc">开关回路、灯具控制关系与安装高度。这是用于业主沟通和设计确认的高细节概念图，尺寸单位为毫米；施工前须现场复尺并由相应专业人员深化。</desc>
  <style>
    .room{fill:#f7f3ea;stroke:#d8d0c3;stroke-width:14}.room.wet{fill:#e9f1ef}.room-label{font:650 150px system-ui,"Microsoft YaHei";fill:#343b38;text-anchor:middle;dominant-baseline:middle}.room-area{font:500 94px system-ui,"Microsoft YaHei";fill:#747d78;text-anchor:middle}.wall{stroke:#202522;stroke-linecap:square}.opening-cut{stroke:#fffdf8}.window-line{stroke:#3184a0;fill:none}.door-line{stroke:#b56c43;fill:none}.furniture{fill:#cabda8;fill-opacity:.58;stroke:#756958;stroke-width:18}.fixture{fill:#edf3f1;stroke:#64736d;stroke-width:18}.ceiling{fill:none;stroke:#9a8060;stroke-width:22;stroke-dasharray:70 38}.light{fill:#fffdf8;stroke:#d49a25;stroke-width:20}.control{fill:none;stroke:#ce6d38;stroke-width:18;stroke-dasharray:55 34}.power{fill:#fffdf8;stroke:#b54e35;stroke-width:20}.cold{fill:none;stroke:#2b86b8;stroke-width:25}.hot{fill:none;stroke:#d4523f;stroke-width:25}.drain{fill:none;stroke:#55746a;stroke-width:38;stroke-dasharray:70 35}.cabinet{fill:#cbb596;stroke:#725d43;stroke-width:24}.swing{fill:none;stroke:#8b745a;stroke-width:16}.label{font:550 96px system-ui,"Microsoft YaHei";fill:#37403c}.small{font:500 78px system-ui,"Microsoft YaHei";fill:#68716d}.callout{font:650 86px ui-monospace,Consolas;fill:#fffdf8;text-anchor:middle;dominant-baseline:middle}.callout-bg{fill:#2d3733}.dim{stroke:#857b6e;stroke-width:12;fill:none}.dim-ext{stroke:#b3aa9d;stroke-width:10}.dim-text{font:500 88px ui-monospace,Consolas;fill:#6b6359;text-anchor:middle}.title{font:720 210px system-ui,"Microsoft YaHei";fill:#202522}.subtitle{font:520 112px system-ui,"Microsoft YaHei";fill:#67716c}.meta{font:520 92px system-ui,"Microsoft YaHei";fill:#67716c}.legend{font:520 90px system-ui,"Microsoft YaHei";fill:#38413d}.sheet-line{stroke:#cfc8bc;stroke-width:14}.symbol{fill:#fffdf8;stroke-width:20}</style>
  <rect x="-1050" y="-1050" width="14100" height="12350" fill="#fffdf8"/>
  <g data-room="room-primary"><polygon class="room" points="0,0 4000,0 4000,3600 0,3600"/><text class="room-label" x="2000" y="1760">主卧</text><text class="room-area" x="2000" y="1925">14.4㎡</text></g><g data-room="room-child"><polygon class="room" points="4000,0 8000,0 8000,3600 4000,3600"/><text class="room-label" x="6000" y="1760">儿童房</text><text class="room-area" x="6000" y="1925">14.4㎡</text></g><g data-room="room-study"><polygon class="room" points="8000,0 12000,0 12000,3600 8000,3600"/><text class="room-label" x="10000" y="1760">书房/客房</text><text class="room-area" x="10000" y="1925">14.4㎡</text></g><g data-room="room-living"><polygon class="room" points="0,3600 9000,3600 9000,9000 0,9000"/><text class="room-label" x="4500" y="6260">客餐厅</text><text class="room-area" x="4500" y="6425">48.6㎡</text></g><g data-room="room-kitchen"><polygon class="room wet" points="9000,3600 12000,3600 12000,6500 9000,6500"/><text class="room-label" x="10500" y="5010">厨房</text><text class="room-area" x="10500" y="5175">8.7㎡</text></g><g data-room="room-bath"><polygon class="room wet" points="9000,6500 12000,6500 12000,9000 9000,9000"/><text class="room-label" x="10500" y="7710">卫生间</text><text class="room-area" x="10500" y="7875">7.5㎡</text></g><line class="wall" data-wall="wall-north" x1="0" y1="0" x2="12000" y2="0" stroke-width="240"/><line class="wall" data-wall="wall-east" x1="12000" y1="0" x2="12000" y2="9000" stroke-width="240"/><line class="wall" data-wall="wall-south" x1="12000" y1="9000" x2="0" y2="9000" stroke-width="240"/><line class="wall" data-wall="wall-west" x1="0" y1="9000" x2="0" y2="0" stroke-width="240"/><line class="wall" data-wall="wall-hall" x1="0" y1="3600" x2="12000" y2="3600" stroke-width="120"/><line class="wall" data-wall="wall-bed-a" x1="4000" y1="0" x2="4000" y2="3600" stroke-width="120"/><line class="wall" data-wall="wall-bed-b" x1="8000" y1="0" x2="8000" y2="3600" stroke-width="120"/><line class="wall" data-wall="wall-service" x1="9000" y1="3600" x2="9000" y2="9000" stroke-width="120"/><line class="wall" data-wall="wall-service-split" x1="9000" y1="6500" x2="12000" y2="6500" stroke-width="120"/><g data-opening="door-entry"><line class="opening-cut" x1="10900" y1="9000" x2="9900" y2="9000" stroke-width="310"/><line class="door-line" x1="10900" y1="9000" x2="10900" y2="8000" stroke-width="28"/><path class="door-line" d="M 9900 9000 A 1000 1000 0 0 1 10900 8000" stroke-width="16"/></g><g data-opening="window-living"><line class="opening-cut" x1="0" y1="7900" x2="0" y2="4300" stroke-width="310"/><line class="window-line" x1="35" y1="7900" x2="35" y2="4300" stroke-width="26"/><line class="window-line" x1="-35" y1="7900" x2="-35" y2="4300" stroke-width="26"/></g><g data-opening="window-primary"><line class="opening-cut" x1="700" y1="0" x2="2900" y2="0" stroke-width="310"/><line class="window-line" x1="700" y1="35" x2="2900" y2="35" stroke-width="26"/><line class="window-line" x1="700" y1="-35" x2="2900" y2="-35" stroke-width="26"/></g><g data-opening="window-child"><line class="opening-cut" x1="4900" y1="0" x2="6900" y2="0" stroke-width="310"/><line class="window-line" x1="4900" y1="35" x2="6900" y2="35" stroke-width="26"/><line class="window-line" x1="4900" y1="-35" x2="6900" y2="-35" stroke-width="26"/></g><g data-opening="window-study"><line class="opening-cut" x1="9000" y1="0" x2="11100" y2="0" stroke-width="310"/><line class="window-line" x1="9000" y1="35" x2="11100" y2="35" stroke-width="26"/><line class="window-line" x1="9000" y1="-35" x2="11100" y2="-35" stroke-width="26"/></g><g data-opening="door-primary"><line class="opening-cut" x1="2900" y1="3600" x2="3800" y2="3600" stroke-width="190"/><line class="door-line" x1="2900" y1="3600" x2="2900" y2="4500" stroke-width="28"/><path class="door-line" d="M 3800 3600 A 900 900 0 0 1 2900 4500" stroke-width="16"/></g><g data-opening="door-child"><line class="opening-cut" x1="5100" y1="3600" x2="6000" y2="3600" stroke-width="190"/><line class="door-line" x1="5100" y1="3600" x2="5100" y2="4500" stroke-width="28"/><path class="door-line" d="M 6000 3600 A 900 900 0 0 1 5100 4500" stroke-width="16"/></g><g data-opening="door-study"><line class="opening-cut" x1="8100" y1="3600" x2="9000" y2="3600" stroke-width="190"/><line class="door-line" x1="8100" y1="3600" x2="8100" y2="4500" stroke-width="28"/><path class="door-line" d="M 9000 3600 A 900 900 0 0 1 8100 4500" stroke-width="16"/></g><g data-opening="door-kitchen"><line class="opening-cut" x1="9000" y1="4500" x2="9000" y2="5800" stroke-width="190"/><line class="door-line" x1="9000" y1="4500" x2="7700" y2="4500" stroke-width="28"/><path class="door-line" d="M 9000 5800 A 1300 1300 0 0 1 7700 4500" stroke-width="16"/></g><g data-opening="door-bath"><line class="opening-cut" x1="9000" y1="7300" x2="9000" y2="8100" stroke-width="190"/><line class="door-line" x1="9000" y1="7300" x2="8200" y2="7300" stroke-width="28"/><path class="door-line" d="M 9000 8100 A 800 800 0 0 1 8200 7300" stroke-width="16"/></g><g data-opening="window-kitchen"><line class="opening-cut" x1="12000" y1="4100" x2="12000" y2="5500" stroke-width="310"/><line class="window-line" x1="11965" y1="4100" x2="11965" y2="5500" stroke-width="26"/><line class="window-line" x1="12035" y1="4100" x2="12035" y2="5500" stroke-width="26"/></g><g data-point="light-living-a" transform="translate(3000 6500)"><circle class="light" r="78"/><line class="light" x1="-52" y1="-52" x2="52" y2="52"/><line class="light" x1="52" y1="-52" x2="-52" y2="52"/><circle class="callout-bg" cx="105" cy="-110" r="54"/><text class="callout" x="105" y="-105">1</text><text class="small" x="170" y="-105">客厅主照明 · H1300</text></g><g data-point="light-dining-a" transform="translate(6900 6200)"><circle class="light" r="78"/><line class="light" x1="-52" y1="-52" x2="52" y2="52"/><line class="light" x1="52" y1="-52" x2="-52" y2="52"/><circle class="callout-bg" cx="105" cy="-110" r="54"/><text class="callout" x="105" y="-105">2</text><text class="small" x="170" y="-105">餐桌吊灯 · H1300</text></g><polyline class="control" data-circuit="circuit-living-main" points="900,7200 3000,6500"/><polyline class="control" data-circuit="circuit-dining" points="900,7200 6900,6200"/><g aria-label="尺寸标注"><line class="dim" x1="0" y1="-520" x2="12000" y2="-520"/><line class="dim-ext" x1="0" y1="-610" x2="0" y2="-430"/><line class="dim-ext" x1="12000" y1="-610" x2="12000" y2="-430"/><text class="dim-text" x="6000" y="-590">12000</text><line class="dim" x1="-520" y1="0" x2="-520" y2="9000"/><line class="dim-ext" x1="-610" y1="0" x2="-430" y2="0"/><line class="dim-ext" x1="-610" y1="9000" x2="-430" y2="9000"/><text class="dim-text" transform="translate(-590 4500) rotate(-90)">9000</text><text class="small" x="12000" y="-720" text-anchor="end">墙段尺寸：12000 / 9000 / 3600 / 5400 / 3000</text></g>
  <line class="sheet-line" x1="-970" y1="10010" x2="12970" y2="10010"/>
  <text class="title" x="-930" y="10310">E-01 开关控制图</text>
  <text class="subtitle" x="-930" y="10530">朝光三居装修方案 · 开关回路、灯具控制关系与安装高度</text>
  <text class="meta" x="-930" y="10750">REV 1 · 单位 mm · 设计确认图 · 非施工下单依据</text>
  <text class="legend" x="12930" y="10400" text-anchor="end">S=开关 · 虚线=控制关系 · H=安装高度</text>
</svg>
